<svg width="64" height="64" viewBox="0 0 64 64" fill="none" xmlns="http://www.w3.org/2000/svg">
<path d="M40.8301 17.208C41.4385 17.1412 41.9174 17.2558 42.2666 17.5518C42.6139 17.8303 42.8158 18.2305 42.873 18.752L44.5508 34.0313C45.0678 33.41 45.6137 32.849 46.1875 32.3477C47.7767 30.9592 49.6581 30.1459 51.8311 29.9072C53.8648 29.6839 55.7384 30.0058 57.4521 30.873C59.1814 31.7211 60.5997 33.0165 61.7061 34.7598C62.8278 36.4838 63.5207 38.5544 63.7861 40.9707C64.0897 43.7345 63.7993 46.2116 62.9141 48.4023C62.0461 50.5912 60.7178 52.3564 58.9297 53.6963C57.1417 55.0361 55.0482 55.8381 52.6494 56.1016C51.1681 56.2642 49.8022 56.1751 48.5508 55.8379C48.3257 55.9449 48.0252 56 47.6484 56H36.4863C35.4612 56 34.9484 55.5849 34.9482 54.7549C34.9482 54.278 35.2042 53.9153 35.7168 53.668L36.5127 53.4033C36.8308 53.2797 37.0608 53.0852 37.2021 52.8203C37.3612 52.5553 37.4143 52.122 37.3613 51.5215L36.1143 39.5186C35.9728 38.2119 35.6375 37.2229 35.1074 36.5518C34.5949 35.8629 33.8258 35.5177 32.8008 35.5176C32.1998 35.5176 31.5807 35.6772 30.9443 35.9951C30.3257 36.3131 29.6978 36.7541 29.0615 37.3193L28.9033 37.4639C28.9192 37.7189 28.9287 37.9799 28.9287 38.2471V51.6016C28.9287 52.1842 28.9906 52.5994 29.1143 52.8467C29.2557 53.094 29.4682 53.2797 29.751 53.4033L30.4932 53.668C31.0058 53.9153 31.2627 54.2779 31.2627 54.7549C31.2626 55.5849 30.7497 56 29.7246 56H18.9326C17.9254 55.9999 17.422 55.5848 17.4219 54.7549C17.4219 54.2779 17.6778 53.9153 18.1904 53.668L18.9863 53.4033C19.2866 53.2797 19.4984 53.0851 19.6221 52.8203C19.7635 52.5554 19.834 52.1316 19.834 51.5488V39.5186C19.8339 38.1939 19.5249 37.1956 18.9062 36.5244C18.3053 35.8534 17.4657 35.5176 16.3877 35.5176C15.6983 35.5176 15 35.6685 14.293 35.9688C13.5859 36.269 12.8789 36.7284 12.1719 37.3467L12.0391 37.4648V51.6016C12.0391 52.1667 12.1009 52.5817 12.2246 52.8467C12.366 53.0939 12.569 53.271 12.834 53.377L13.6562 53.668C14.1689 53.9153 14.4258 54.2779 14.4258 54.7549C14.4256 55.5848 13.9126 55.9999 12.8877 56H1.77734C1.26484 56 0.885132 55.8936 0.637695 55.6816C0.4079 55.4697 0.292969 55.1873 0.292969 54.834C0.292979 54.5691 0.363593 54.3398 0.504883 54.1455C0.663971 53.9335 0.902531 53.7653 1.2207 53.6416L2.0957 53.377C2.37853 53.271 2.58232 53.094 2.70605 52.8467C2.8297 52.5994 2.8916 52.193 2.8916 51.6279V36.9756C2.8916 36.5342 2.82968 36.2158 2.70605 36.0215C2.58232 35.8095 2.37853 35.677 2.0957 35.624L1.03516 35.4912C0.73468 35.4206 0.513476 35.2968 0.37207 35.1201C0.230839 34.9435 0.160156 34.7315 0.160156 34.4844C0.160196 34.1665 0.249055 33.9198 0.425781 33.7432C0.602525 33.5489 0.929081 33.3631 1.40625 33.1865L7.3457 31.0664C8.0351 30.8014 8.59236 30.6158 9.0166 30.5098C9.44068 30.3862 9.84757 30.3242 10.2363 30.3242C10.8371 30.3243 11.2875 30.4926 11.5879 30.8281C11.8883 31.1637 12.039 31.5962 12.0391 32.126V35.0244C13.8535 33.4387 15.4609 32.2862 16.8643 31.5703C18.5612 30.7048 20.1442 30.2715 21.6113 30.2715C23.8384 30.2716 25.6148 30.996 26.9404 32.4443C27.6823 33.245 28.2162 34.2034 28.543 35.3193C30.3741 33.6452 31.988 32.4134 33.3838 31.623C34.1874 31.173 34.9666 30.8346 35.7217 30.6094L34.4014 24.5117C34.3536 24.0771 34.2499 23.7716 34.0898 23.5957C33.9472 23.4179 33.734 23.3185 33.4502 23.2969L32.4189 23.2773C32.0967 23.2248 31.8574 23.1284 31.7012 22.9873C31.5604 22.8268 31.4749 22.6162 31.4463 22.3555C31.4119 22.0427 31.4723 21.7896 31.627 21.5967C31.7798 21.3864 32.082 21.1687 32.5322 20.9434L38.1465 18.2412C38.8285 17.8849 39.3636 17.6326 39.752 17.4844C40.1576 17.3343 40.5172 17.2424 40.8301 17.208ZM51.3174 35.083C50.5012 34.5393 49.6063 34.3208 48.6328 34.4277C47.5898 34.5423 46.6447 34.9894 45.7979 35.7686C45.5125 36.0247 45.2407 36.3249 44.9785 36.666C45.0849 37.2587 45.164 37.804 45.209 38.2471L46.6143 51.6016C46.6297 51.729 46.6469 51.8487 46.6641 51.9609C46.981 52.2101 47.2981 52.4213 47.6191 52.5898C48.532 53.0526 49.5017 53.2269 50.5273 53.1143C51.518 53.0054 52.3695 52.5864 53.0811 51.8574C53.7924 51.1284 54.2875 50.0275 54.5654 48.5547C54.8435 47.0815 54.8565 45.1969 54.6045 42.9023C54.3735 40.7992 53.9673 39.1112 53.3877 37.8379C52.8235 36.5452 52.1336 35.6267 51.3174 35.083Z" fill="#E75470"/>
</svg>
